<?xml version="1.0" encoding="UTF-8" standalone="no"?>
<svg width="182px" height="128px" viewBox="0 0 182 128" version="1.1" xmlns="http://www.w3.org/2000/svg" xmlns:xlink="http://www.w3.org/1999/xlink" xmlns:sketch="http://www.bohemiancoding.com/sketch/ns">
    <!-- Generator: Sketch 3.4 (15575) - http://www.bohemiancoding.com/sketch -->
    <title>reel camera</title>
    <desc>Created with Sketch.</desc>
    <defs></defs>
    <g id="Page-1" stroke="none" stroke-width="1" fill="none" fill-rule="evenodd" sketch:type="MSPage">
        <g id="About-Us" sketch:type="MSArtboardGroup" transform="translate(-509.000000, -616.000000)" stroke="#554946">
            <g id="reel-camera" sketch:type="MSLayerGroup" transform="translate(509.000000, 616.000000)">
                <path d="M68.7008129,72.0374162 C70.7349032,76.7115719 68.2472342,82.0072337 63.1503185,83.8674662 C58.0534027,85.7298419 52.2737808,83.4517 50.2420286,78.7775444 L37.9883885,42.3765662 C36.6346664,39.2604625 38.292333,35.7307356 41.6894975,34.4877231 C45.0890001,33.2468537 48.9397433,34.7663294 50.2958034,37.8824331 L68.7008129,72.0374162" id="Fill-1" fill="#EB573B" sketch:type="MSShapeGroup"></path>
                <path d="M103.072262,80.2905906 C100.329747,86.109175 92.9696136,88.783795 86.6241873,86.2720525 C80.276423,83.7581669 77.3562176,77.0073231 80.0987323,71.193025 L104.624717,28.7998694 C106.455398,24.9208131 111.365271,23.13559 115.592438,24.8115138 C119.824281,26.4874375 121.769526,30.9858569 119.94352,34.8649131 L103.072262,80.2905906" id="Fill-2" fill="#EB573B" sketch:type="MSShapeGroup"></path>
                <path d="M62.3857811,119.064008 L88.9318276,119.064008 L88.9318276,126.961424 L62.3857811,126.961424 L62.3857811,119.064008 Z" id="Fill-6" fill="#9B9B9B" sketch:type="MSShapeGroup"></path>
                <path d="M7.93516772,84.0632359 C8.09007358,84.103689 8.24859757,84.1246412 8.40991098,84.1246412 L15.7840726,84.1246412 C17.5563029,84.1246412 18.9918562,81.5957537 18.9918562,78.462505 C18.9918562,75.3313994 17.5563029,72.7960825 15.7840726,72.7960825 L8.40991098,72.7960825 C8.24831605,72.7960825 8.0895203,72.8171614 7.93435676,72.8578488 C7.22789271,71.8176807 5.96910349,71.124445 4.5357874,71.124445 C2.32634457,71.124445 0.535409957,72.7682219 0.535409957,74.7913319 L0.535409957,82.1293919 C0.535409957,84.154645 2.32634457,85.7984219 4.5357874,85.7984219 C5.96965209,85.7984219 7.2288563,85.1046554 7.93516772,84.0632359 Z" id="Fill-7" fill="#9B9B9B" sketch:type="MSShapeGroup"></path>
                <path d="M175.167901,60.185935 L142.103414,81.1649856 L142.103414,93.2693556 L175.167901,114.246263 C178.546361,116.391531 181.312256,114.636312 181.312256,110.347919 L181.312256,64.0864225 C181.312256,59.7937431 178.546361,58.0406669 175.167901,60.185935" id="Fill-9" fill="#4A4A4A" sketch:type="MSShapeGroup"></path>
                <path d="M128.888841,72.7810806 L128.888841,101.651117 L142.103414,93.2693556 L142.103414,81.1649856 L128.888841,72.7810806" id="Fill-10" fill="#9B9B9B" sketch:type="MSShapeGroup"></path>
                <path d="M135.351169,110.757256 C135.351169,115.491419 131.166087,119.327613 125.99903,119.327613 L25.3185783,119.327613 C20.1538595,119.327613 15.9687773,115.491419 15.9687773,110.757256 L15.9687773,63.6749425 C15.9687773,58.9429225 20.1538595,55.1045856 25.3185783,55.1045856 L125.99903,55.1045856 C131.166087,55.1045856 135.351169,58.9429225 135.351169,63.6749425 L135.351169,110.757256" id="Fill-11" stroke-width="2" fill="#4A4A4A" sketch:type="MSShapeGroup"></path>
                <path d="M40.7659738,99.9880525 C38.7061652,99.9880525 36.8965263,100.931028 35.799988,102.366921 L14.4584069,102.366921 C13.3361502,101.543961 11.8959208,100.785295 10.2452683,100.202365 C5.78429796,98.6357406 1.49868027,98.9657819 0.673354006,100.935314 C-0.154310293,102.911275 2.79395152,105.780919 7.25725985,107.349687 C8.78867261,107.889754 10.2920289,108.187649 11.6504271,108.288376 L11.6504271,108.341954 L35.5428042,108.341954 C36.5972579,109.99216 38.5308126,111.113014 40.7659738,111.113014 C44.1187156,111.113014 46.835512,108.622703 46.835512,105.551605 C46.835512,102.476221 44.1187156,99.9880525 40.7659738,99.9880525" id="Fill-12" fill="#9B9B9B" sketch:type="MSShapeGroup"></path>
                <path d="M101.77699,105.161556 C101.77699,102.44836 99.3734908,100.247371 96.4135388,100.247371 C93.4535868,100.247371 91.0500871,102.44836 91.0500871,105.161556 C91.0500871,107.876896 93.4535868,110.080028 96.4135388,110.080028 C99.3734908,110.080028 101.77699,107.876896 101.77699,105.161556 Z M39.0592084,71.124445 C39.0592084,68.4091056 36.6557087,66.2081163 33.6957567,66.2081163 C30.7334667,66.2081163 28.332305,68.4091056 28.332305,71.124445 C28.332305,73.8376413 30.7334667,76.0386306 33.6957567,76.0386306 C36.6557087,76.0386306 39.0592084,73.8376413 39.0592084,71.124445 Z M119.270166,105.161556 C119.270166,102.44836 116.866667,100.247371 113.906715,100.247371 C110.944425,100.247371 108.543263,102.44836 108.543263,105.161556 C108.543263,107.876896 110.944425,110.080028 113.906715,110.080028 C116.866667,110.080028 119.270166,107.876896 119.270166,105.161556 Z M45.4163249,78.8151864 C45.4163249,77.6324505 44.3685918,76.6729956 43.0782902,76.6729956 C41.7869693,76.6729956 40.7402554,77.6324505 40.7402554,78.8151864 C40.7402554,79.9988566 41.7869693,80.9592456 43.0782902,80.9592456 C44.3685918,80.9592456 45.4163249,79.9988566 45.4163249,78.8151864 Z" id="Fill-13" fill="#F8C029" sketch:type="MSShapeGroup"></path>
                <path d="M35.9566363,23.51278 L103.260863,14.6230975 L103.825289,17.4348775 L36.5234337,26.32456 L35.9566363,23.51278 Z" id="Fill-16" fill="#5FAD46" sketch:type="MSShapeGroup"></path>
                <path d="M49.6650462,24.1677035 C42.0161201,21.0083378 33.017621,24.134369 29.5729778,31.1475682 C26.1283346,38.1607673 29.5366121,46.4036374 37.1895789,49.564855 C44.8405254,52.7223687 53.8349838,49.5981895 57.279627,42.5831384 C60.7262905,35.5717912 57.3180131,27.3270691 49.6650462,24.1677035 Z M113.70186,14.185617 C103.108628,9.81186443 90.6525562,14.1402343 85.8850864,23.8483387 C81.1093647,33.560225 85.8293868,44.9758515 96.4246811,49.351495 C107.019975,53.7233566 119.471922,49.3968777 124.243518,39.6831004 C129.017176,29.974996 124.299217,18.5574786 113.70186,14.185617 Z" id="Fill-17" fill="#5FAD46" sketch:type="MSShapeGroup"></path>
                <path d="M53.7537568,16.0011269 C41.1517495,10.7976194 26.3379614,15.9454056 20.658875,27.4925631 C16.2259611,36.5215488 18.708954,46.7721156 26.0153126,53.3086469 L25.9217912,53.3943719 L26.2491161,53.5208163 C28.2387836,55.2546044 30.553438,56.7355038 33.2047694,57.8284975 C45.8021006,63.0298619 60.6182268,57.8820756 66.2926372,46.3306319 C71.9670475,34.7791881 66.3534261,21.2003481 53.7537568,16.0011269 L53.7537568,16.0011269 Z M51.7664273,20.0430606 C55.9421573,21.76399 59.147603,24.6379206 61.1770171,28.0626344 L47.9226982,34.9377794 L44.1163776,34.9634969 L41.4463419,32.4731856 L37.4506405,19.2672494 C42.0004562,17.9556569 47.0739915,18.1056756 51.7664273,20.0430606 L51.7664273,20.0430606 Z M42.9660645,37.5095294 L42.9613884,37.5073863 L42.9660645,37.5095294 L42.9660645,37.5052431 L42.9660645,37.5073863 L42.9660645,37.5095294 L42.9660645,37.5095294 Z M38.9703631,41.2299944 L29.3984489,50.1539669 C23.5019253,44.8797363 21.4912154,36.6051306 25.0707466,29.3163625 C25.2648035,28.9263138 25.4728885,28.5491238 25.6903258,28.1783631 L38.0608676,34.8606269 L39.9850702,37.863145 L38.9703631,41.2299944 L38.9703631,41.2299944 Z M61.8854417,44.5111188 C58.4204742,51.5641431 50.735354,55.6467963 42.797726,55.4046231 L42.9169658,42.7301819 L44.7944077,39.6933738 L48.4791504,38.8146925 L62.7996132,42.2136888 C62.5447675,42.9852138 62.2548511,43.7567388 61.8854417,44.5111188 Z M118.99194,3.24524688 C101.903244,-3.80992062 81.8171879,3.1702375 74.1227155,18.8279088 C68.1092901,31.0694388 71.4760602,44.9718906 81.3823134,53.8337125 L81.2537215,53.9515844 L81.6979481,54.1208913 C84.3983782,56.4761856 87.5383589,58.4821506 91.1319183,59.96305 C108.2136,67.0182175 128.304333,60.0359163 135.996467,44.3718156 C143.695615,28.7098581 136.07596,10.2982713 118.99194,3.24524688 Z M116.3032,8.7252175 C121.963582,11.0612238 126.307651,14.9595681 129.061856,19.5972906 L111.089383,28.9220275 L105.92934,28.9606038 L102.303048,25.5830388 L96.8881598,7.67508625 C103.058234,5.89414938 109.936732,6.09774625 116.3032,8.7252175 L116.3032,8.7252175 Z M104.365195,32.411035 L104.360519,32.4088919 L104.365195,32.411035 L104.365195,32.4067488 L104.367533,32.4046056 L104.367533,32.4088919 L104.365195,32.411035 L104.365195,32.411035 Z M98.9503065,37.4580944 L85.9718756,49.556035 C77.9711207,42.40657 75.2449722,31.1851675 80.1010704,21.301075 C80.3629302,20.7738663 80.6458324,20.2616594 80.9404248,19.758025 L97.7158241,28.8170144 L100.327409,32.8932381 L98.9503065,37.4580944 L98.9503065,37.4580944 Z M130.02045,41.9050788 C125.321,51.4677025 114.900379,57.0055375 104.136068,56.6776394 L104.297392,39.4897769 L106.84585,35.3728338 L111.84223,34.1833994 L131.261947,38.788975 C130.915917,39.8391063 130.523128,40.8828081 130.02045,41.9050788 L130.02045,41.9050788 Z" id="Fill-18" fill="#9B9B9B" sketch:type="MSShapeGroup"></path>
                <path d="M45.9330306,31.9245456 C42.9263179,30.6836763 39.3912094,31.9095438 38.0374873,34.6677456 C36.6837651,37.4216613 38.0234591,40.6663525 41.0278337,41.9050788 C44.0368844,43.1459481 47.5696549,41.9179375 48.921039,39.1618788 C50.2770992,36.4036769 48.9374052,33.165415 45.9330306,31.9245456 Z M108.388953,24.8393744 C104.31142,23.1548781 99.5184489,24.8179431 97.6807536,28.5576962 C95.8500724,32.2931631 97.6620493,36.6887125 101.739582,38.3710656 C105.814776,40.0534187 110.610086,38.3860675 112.443105,34.6506006 C114.2808,30.9108475 112.466485,26.5217275 108.388953,24.8393744 Z" id="Fill-19" fill="#F9F9D2" sketch:type="MSShapeGroup"></path>
            </g>
        </g>
    </g>
</svg>